{"title":"The Birds 1963 HDTVRip AC3 X264-BARC0DE","uid":6146435,"size":1561553290,"categoryP":"video","categoryS":"hd___movies","magnet":"?xt=urn:btih:cf40ff6fc23fdbad931373decfa0a72e09401ec9&amp;dn=The+Birds+1963+HDTVRip+AC3+X264-BARC0DE&amp;tr=udp%3A%2F%2Ftracker.openbittorrent.com%3A80&amp;tr=udp%3A%2F%2Fopen.demonii.com%3A1337&amp;tr=udp%3A%2F%2Ftracker.coppersurfer.tk%3A6969&amp;tr=udp%3A%2F%2Fexodus.desync.com%3A6969","seeders":0,"leechers":1,"uploader":"zingooo","files":-1,"time":1296692318,"description":"*******************************************************************************\n                  The.Birds.1963.HDTVRip.AC3.X264-BARC0DE\n*******************************************************************************\n\n-------------------------------------------------------------------------------\n                             General Information\n-------------------------------------------------------------------------------\nType.................: Movie\nName.................: The Birds\nMovie Information....: http://www.imdb.com/title/tt0056869/\nGenre................: Horror | Romance | Thriller\n-------------------------------------------------------------------------------\n                                   PLOT\n-------------------------------------------------------------------------------\nA wealthy San Francisco socialite pursues a potential boyfriend to a small \nNorthern California town that slowly takes a turn for the bizarre when birds of \nall kinds suddenly begin to attack people there in increasing numbers and with \nincreasing viciousness.\n\n-------------------------------------------------------------------------------\n                                   CAST\n-------------------------------------------------------------------------------\nTippi Hedren ... Melanie Daniels (as 'Tippi' Hedren) \nSuzanne Pleshette ... Annie Hayworth \nRod Taylor ... Mitch Brenner \nJessica Tandy ... Lydia Brenner \nVeronica Cartwright ... Cathy Brenner \nEthel Griffies ... Mrs. Bundy - Ornithologist \nCharles McGraw ... Sebastian Sholes - Fisherman in Diner \nDoreen Lang ... Hysterical Mother in Diner \nRuth McDevitt ... Mrs. MacGruder - Pet Store Clerk \nJoe Mantell ... Traveling Salesman at Diner's Bar \nMalcolm Atterbury ... Deputy Al Malone \nKarl Swenson ... Drunken Doomsayer in Diner \nElizabeth Wilson ... Helen Carter \nLonny Chapman ... Deke Carter - Diner Owner \nDoodles Weaver ... Fisherman Helping with Rental Boat\n\n-------------------------------------------------------------------------------\n                                   MEDiA iNFO\n-------------------------------------------------------------------------------\n\nGeneral\nComplete name                    : The.Birds.1963.HDTVRip.AC3.X264-BARC0DE.mkv\nFormat                           : Matroska\nFile size                        : 1.45 GiB\nDuration                         : 1h 59mn\nOverall bit rate                 : 1 743 Kbps\n\n\nVideo\nID                               : 1\nFormat                           : AVC\nFormat/Info                      : Advanced Video Codec\nFormat profile                   : &lt;a class=&quot;__cf_email__&quot; href=&quot;/cdn-cgi/l/email-protection&quot; data-cfemail=&quot;da92b3bdb29a96e9f4ea&quot;&gt;[email&amp;#160;protected]&lt;/a&gt;&lt;script cf-hash='f9e31' type=&quot;text/javascript&quot;&gt;\n/* &lt;![CDATA[ */!function(){try{var t=&quot;currentScript&quot;in document?document.currentScript:function(){for(var t=document.getElementsByTagName(&quot;script&quot;),e=t.length;e--;)if(t[e].getAttribute(&quot;cf-hash&quot;))return t[e]}();if(t&amp;&amp;t.previousSibling){var e,r,n,i,c=t.previousSibling,a=c.getAttribute(&quot;data-cfemail&quot;);if(a){for(e=&quot;&quot;,r=parseInt(a.substr(0,2),16),n=2;a.length-n;n+=2)i=parseInt(a.substr(n,2),16)^r,e+=String.fromCharCode(i);e=document.createTextNode(e),c.parentNode.replaceChild(e,c)}}}catch(u){}}();/* ]]&gt; */&lt;/script&gt;\nFormat settings, CABAC           : Yes\nFormat settings, ReFrames        : 3 frames\nMuxing mode                      : Container profile=&lt;a class=&quot;__cf_email__&quot; href=&quot;/cdn-cgi/l/email-protection&quot; data-cfemail=&quot;84d1eaefeaebf3eac4b7aab4&quot;&gt;[email&amp;#160;protected]&lt;/a&gt;&lt;script cf-hash='f9e31' type=&quot;text/javascript&quot;&gt;\n/* &lt;![CDATA[ */!function(){try{var t=&quot;currentScript&quot;in document?document.currentScript:function(){for(var t=document.getElementsByTagName(&quot;script&quot;),e=t.length;e--;)if(t[e].getAttribute(&quot;cf-hash&quot;))return t[e]}();if(t&amp;&amp;t.previousSibling){var e,r,n,i,c=t.previousSibling,a=c.getAttribute(&quot;data-cfemail&quot;);if(a){for(e=&quot;&quot;,r=parseInt(a.substr(0,2),16),n=2;a.length-n;n+=2)i=parseInt(a.substr(n,2),16)^r,e+=String.fromCharCode(i);e=document.createTextNode(e),c.parentNode.replaceChild(e,c)}}}catch(u){}}();/* ]]&gt; */&lt;/script&gt;\nCodec ID                         : V_MPEG4/ISO/AVC\nDuration                         : 1h 59mn\nBit rate                         : 1 363 Kbps\nWidth                            : 720 pixels\nHeight                           : 400 pixels\nDisplay aspect ratio             : 16:9\nFrame rate                       : 23.976 fps\nColor space                      : YUV\nChroma subsampling               : 4:2:0\nBit depth                        : 8 bits\nScan type                        : Progressive\nBits/(Pixel*Frame)               : 0.197\nStream size                      : 1.10 GiB (76%)\nWriting library                  : x264 core 79\n\n\nAudio\nID                               : 2\nFormat                           : AC-3\nFormat/Info                      : Audio Coding 3\nMode extension                   : CM (complete main)\nCodec ID                         : A_AC3\nDuration                         : 1h 59mn\nBit rate mode                    : Constant\nBit rate                         : 384 Kbps\nChannel(s)                       : 6 channels\nChannel positions                : Front: L C R, Side: L R, LFE\nSampling rate                    : 48.0 KHz\nStream size                      : 328 MiB (22%)\nLanguage                         : English","torrent":{"xt":"urn:btih:cf40ff6fc23fdbad931373decfa0a72e09401ec9","amp;dn":"The+Birds+1963+HDTVRip+AC3+X264-BARC0DE","amp;tr":["udp%3A%2F%2Ftracker.openbittorrent.com%3A80","udp%3A%2F%2Fopen.demonii.com%3A1337","udp%3A%2F%2Ftracker.coppersurfer.tk%3A6969","udp%3A%2F%2Fexodus.desync.com%3A6969"],"infoHash":"cf40ff6fc23fdbad931373decfa0a72e09401ec9","infoHashBuffer":{"type":"Buffer","data":[207,64,255,111,194,63,219,173,147,19,115,222,207,160,167,46,9,64,30,201]},"announce":[],"urlList":[]}}